<svg width="136" height="19" viewBox="0 0 136 19" fill="none" xmlns="http://www.w3.org/2000/svg">
<path d="M2.58301 9.22314C2.58301 13.9351 4.7111 16.291 8.96729 16.291C13.134 16.291 15.2173 13.9351 15.2173 9.22314C15.2173 4.57633 13.134 2.25293 8.96729 2.25293C4.7111 2.25293 2.58301 4.57633 2.58301 9.22314ZM0.202637 9.29639C0.202637 3.38005 3.12419 0.421875 8.96729 0.421875C14.7209 0.421875 17.5977 3.38005 17.5977 9.29639C17.5977 15.1802 14.7209 18.1221 8.96729 18.1221C3.12419 18.1221 0.202637 15.1802 0.202637 9.29639ZM32.5635 0.543945V2.375H23.4082V8.23438H32.1362V10.0654H23.4082V18H21.1499V0.543945H32.5635ZM46.6748 0.543945V2.375H37.5195V8.23438H46.2476V10.0654H37.5195V18H35.2612V0.543945H46.6748ZM51.9971 0.543945V18H49.7388V0.543945H51.9971ZM69.7095 17.3896C68.2039 17.8779 66.5763 18.1221 64.8267 18.1221C58.7231 18.1221 55.6714 15.0907 55.6714 9.02783C55.6714 3.29053 58.7231 0.421875 64.8267 0.421875C66.5763 0.421875 68.2039 0.666016 69.7095 1.1543V3.10742C68.2039 2.53776 66.6577 2.25293 65.0708 2.25293C60.3101 2.25293 57.9297 4.51123 57.9297 9.02783C57.9297 13.87 60.3101 16.291 65.0708 16.291C66.6577 16.291 68.2039 16.0062 69.7095 15.4365V17.3896ZM84.8584 0.543945V2.375H75.7031V8.23438H84.4312V10.0654H75.7031V16.1689H85.0415V18H73.4448V0.543945H84.8584Z" fill="white"/>
<path d="M93.7085 1.1543C95.3361 0.666016 96.9637 0.421875 98.5913 0.421875C102.782 0.421875 104.878 2.00879 104.878 5.18262C104.878 7.10319 104.113 8.42562 102.583 9.1499C104.113 9.84163 104.878 11.1641 104.878 13.1172C104.878 16.4538 102.782 18.1221 98.5913 18.1221C96.9637 18.1221 95.3361 17.8779 93.7085 17.3896V15.4365C95.3361 16.0062 96.9637 16.291 98.5913 16.291C101.277 16.291 102.62 15.2331 102.62 13.1172C102.62 11.0827 101.594 10.0654 99.5435 10.0654H95.5396V8.23438H99.5068C101.582 8.23438 102.62 7.21712 102.62 5.18262C102.62 3.22949 101.277 2.25293 98.5913 2.25293C96.9637 2.25293 95.3361 2.53776 93.7085 3.10742V1.1543ZM107.747 11.2861C107.747 6.76139 110.424 3.0057 115.779 0.019043L116.951 1.56934C114.005 3.00163 111.913 4.95068 110.676 7.4165C111.742 6.98519 113.028 6.76953 114.534 6.76953C118.717 6.76953 120.808 8.60059 120.808 12.2627C120.808 16.1689 118.599 18.1221 114.18 18.1221C109.891 18.1221 107.747 15.8434 107.747 11.2861ZM109.883 11.2129C109.883 14.5983 111.352 16.291 114.29 16.291C117.162 16.291 118.599 14.9482 118.599 12.2627C118.599 9.82129 117.207 8.60059 114.424 8.60059C112.682 8.60059 111.283 8.7959 110.225 9.18652C109.997 9.6748 109.883 10.3503 109.883 11.2129ZM123.799 0.543945H134.346V2.375H125.728L125.435 7.77051C126.387 7.59147 127.388 7.50195 128.438 7.50195C132.832 7.50195 135.029 9.17025 135.029 12.5068C135.029 16.2503 132.751 18.1221 128.193 18.1221C126.647 18.1221 125.06 17.8779 123.433 17.3896V15.4365C125.06 16.0062 126.688 16.291 128.315 16.291C131.286 16.291 132.771 15.0296 132.771 12.5068C132.771 10.391 131.326 9.33301 128.438 9.33301C126.606 9.33301 124.938 9.49577 123.433 9.82129L123.799 0.543945Z" fill="#E7505A"/>
</svg>
